<svg aria-hidden="true" focusable="false" data-prefix="fad" data-icon="calendar-day" class="svg-inline--fa fa-calendar-day fa-w-14" role="img" xmlns="http://www.w3.org/2000/svg" viewBox="0 0 448 512"><g class="fa-group"><path class="fa-secondary" fill="currentColor" d="M0 192v272a48 48 0 0 0 48 48h352a48 48 0 0 0 48-48V192zm192 176a16 16 0 0 1-16 16H80a16 16 0 0 1-16-16v-96a16 16 0 0 1 16-16h96a16 16 0 0 1 16 16z" opacity="0.4"></path><path class="fa-primary" fill="currentColor" d="M448 112v48H0v-48a48 48 0 0 1 48-48h48V16a16 16 0 0 1 16-16h32a16 16 0 0 1 16 16v48h128V16a16 16 0 0 1 16-16h32a16 16 0 0 1 16 16v48h48a48 48 0 0 1 48 48z"></path></g></svg>