<?xml version="1.0" ?><svg viewBox="0 0 50 50" xmlns="http://www.w3.org/2000/svg"><defs><style>.a{fill:currentColor;opacity:0.4}.b{fill:currentColor;opacity:0;}.c{fill:none;stroke:currentColor;opacity:0.4;stroke-linecap:round;stroke-linejoin:round;stroke-width:1.25px;}.d{fill:currentColor;}</style></defs><title/><path class="a" d="M32.1,27.88A40.335,40.335,0,0,0,44.391,17.837a3.175,3.175,0,0,0-.139-4.072A50.872,50.872,0,0,0,32.1,3.727a2.11,2.11,0,0,0-3.165,1.836V9.3L8.246,6.544A2.135,2.135,0,0,0,5.9,8.156a30.848,30.848,0,0,0,0,15.307,2.133,2.133,0,0,0,2.357,1.61l20.68-2.89V26.04A2.12,2.12,0,0,0,32.1,27.88Z"/><path class="b" d="M44.252,17.617A50.855,50.855,0,0,0,32.107,7.582a2.111,2.111,0,0,0-3.17,1.833v1.069A2.34,2.34,0,0,1,26.288,12.8L8.246,10.4A2.132,2.132,0,0,0,5.905,12,31.6,31.6,0,0,0,5,17.74a30.973,30.973,0,0,1,.909-9.6,2.13,2.13,0,0,1,2.339-1.6L28.937,9.3V5.563a2.111,2.111,0,0,1,3.17-1.833A50.855,50.855,0,0,1,44.252,13.765a3.174,3.174,0,0,1,.15,4.054C44.351,17.752,44.309,17.681,44.252,17.617Z"/><path class="c" d="M32.1,27.88A40.335,40.335,0,0,0,44.391,17.837a3.175,3.175,0,0,0-.139-4.072A50.872,50.872,0,0,0,32.1,3.727a2.11,2.11,0,0,0-3.165,1.836V9.3L8.246,6.544A2.135,2.135,0,0,0,5.9,8.156a30.848,30.848,0,0,0,0,15.307,2.133,2.133,0,0,0,2.357,1.61l20.68-2.89V26.04A2.12,2.12,0,0,0,32.1,27.88Z"/><path class="d" d="M6.08,38.023c-.744-.216-1.514-.44-1.514-.745,0-.476.558-.6.888-.6a3.136,3.136,0,0,1,1.161.257,3.007,3.007,0,0,0,1.061.245,1.626,1.626,0,0,0,1.6-1.718c0-1.766-2.712-2.153-3.756-2.153A4.362,4.362,0,0,0,.9,37.579c0,2.627,2.216,3.254,3.834,3.711,1.086.307,1.746.525,1.746.951,0,.6-.457.955-1.222.955a4.52,4.52,0,0,1-1.47-.338,4.144,4.144,0,0,0-1.338-.314,1.6,1.6,0,0,0-1.6,1.668c0,2.239,3.783,2.353,4.541,2.353,2.757,0,4.759-1.833,4.759-4.358C10.146,39.2,7.7,38.494,6.08,38.023Z"/><path class="d" d="M17.27,33.305c-3.609,0-6.229,2.789-6.229,6.63a6.3,6.3,0,0,0,6.229,6.63c3.609,0,6.228-2.788,6.228-6.63A6.3,6.3,0,0,0,17.27,33.305Zm0,3.269c1.837,0,2.659,1.688,2.659,3.361,0,1.551-.7,3.361-2.659,3.361s-2.66-1.81-2.66-3.361S15.307,36.574,17.27,36.574Z"/><path class="d" d="M30.591,33.305c-3.61,0-6.229,2.789-6.229,6.63a6.3,6.3,0,0,0,6.229,6.63c3.609,0,6.228-2.788,6.228-6.63A6.3,6.3,0,0,0,30.591,33.305Zm0,3.269c1.836,0,2.659,1.688,2.659,3.361,0,1.551-.7,3.361-2.659,3.361s-2.66-1.81-2.66-3.361S28.627,36.574,30.591,36.574Z"/><path class="d" d="M47.42,33.406a1.684,1.684,0,0,0-1.735,1.784V40.1l-4.458-5.949a2.045,2.045,0,0,0-1.443-.75A1.684,1.684,0,0,0,38.05,35.19v9.49a1.735,1.735,0,1,0,3.469,0V39.836l4.468,5.892a2.078,2.078,0,0,0,1.433.737,1.684,1.684,0,0,0,1.734-1.785V35.19A1.684,1.684,0,0,0,47.42,33.406Z"/></svg>